# Blender 3.3.0
# www.blender.org
mtllib Table.mtl
o Cube
v -1.000000 4.002973 1.000000
v -0.967445 3.715095 0.967445
v -1.000000 4.002973 -1.000000
v -0.967445 3.715095 -0.967445
v 1.000000 4.002973 1.000000
v 0.967445 3.715095 0.967445
v 1.000000 4.002973 -1.000000
v 0.967445 3.715095 -0.967445
v -1.026945 3.963304 1.026945
v -1.026945 3.754764 1.026945
v -1.026945 3.754764 -1.026945
v -1.026945 3.963304 -1.026945
v 1.026945 3.754764 -1.026945
v 1.026945 3.963304 -1.026945
v 1.026945 3.754764 1.026945
v 1.026945 3.963304 1.026945
v -1.000000 3.715095 1.000000
v -1.000000 3.715095 -1.000000
v 1.000000 3.715095 -1.000000
v 1.000000 3.715095 1.000000
v -0.719219 3.663247 0.719219
v -0.719219 3.663247 -0.719219
v 0.719219 3.663247 -0.719219
v 0.719219 3.663247 0.719219
v -0.967445 3.663247 0.967445
v -0.967445 3.663247 -0.967445
v 0.967445 3.663247 -0.967445
v 0.967445 3.663247 0.967445
v -0.719219 3.747311 0.719219
v -0.719219 3.747311 -0.719219
v 0.719219 3.747311 -0.719219
v 0.719219 3.747311 0.719219
v 1.026945 3.963304 0.257467
v 1.026945 3.963304 0.324879
v 1.000000 4.002973 0.320535
v 1.000000 4.002973 0.262488
v 1.026945 3.885046 0.302811
v 0.848377 4.002973 0.312288
v 0.084259 4.002973 1.000000
v 0.144344 4.002973 1.000000
v 0.135856 3.963304 1.026945
v 0.104731 3.963304 1.026945
v 0.082526 3.963304 1.026945
v 0.120793 3.876795 1.026945
v 0.093567 3.921533 1.026945
v 0.093596 4.002973 0.954090
v 0.105069 4.002973 0.986338
v 0.137429 4.002973 0.862437
v -0.494611 4.002973 1.000000
v -0.462723 4.002973 1.000000
v -0.359644 4.002973 1.000000
v -0.374394 3.963304 1.026945
v -0.498596 3.963304 1.026945
v -0.409197 3.895157 1.026945
v -0.428792 3.940420 1.026945
v -0.471744 3.874012 1.026945
v -0.499576 3.917402 1.026945
v -0.486158 4.002973 0.941574
v -0.442843 4.002973 0.793737
v -1.026945 3.963304 -0.333131
v -1.026945 3.963304 -0.367967
v -1.000000 4.002973 -0.365093
v -1.000000 4.002973 -0.335347
v -1.026945 3.906337 -0.354948
v -0.965283 4.002973 -0.364291
v -1.026945 3.963304 -0.295807
v -1.000000 4.002973 -0.319083
v -1.000000 4.002973 -0.289313
v -1.026945 3.917913 -0.306170
v -0.964847 4.002973 -0.308291
v 1.026945 3.952965 0.257467
v 1.026945 3.952965 0.324879
v 1.000000 3.992634 0.320535
v 1.000000 3.992634 0.262488
v 1.026945 3.874707 0.302811
v 0.848377 3.992634 0.312288
v 0.084259 3.992634 1.000000
v 0.144344 3.992634 1.000000
v 0.135856 3.952965 1.026945
v 0.104731 3.952965 1.026945
v 0.082526 3.952965 1.026945
v 0.120793 3.866457 1.026945
v 0.093567 3.911195 1.026945
v 0.093596 3.992634 0.954090
v 0.105069 3.992634 0.986338
v 0.137429 3.992634 0.862437
v -0.494611 3.992634 1.000000
v -0.462723 3.992634 1.000000
v -0.359644 3.992634 1.000000
v -0.374394 3.952965 1.026945
v -0.498596 3.952965 1.026945
v -0.409197 3.884819 1.026945
v -0.428792 3.930082 1.026945
v -0.471744 3.863673 1.026945
v -0.499576 3.907064 1.026945
v -0.486158 3.992634 0.941574
v -0.442843 3.992634 0.793737
v -1.026945 3.952965 -0.295807
v -1.026945 3.952965 -0.333131
v -1.026945 3.952965 -0.367967
v -1.000000 3.992634 -0.365093
v -1.000000 3.992634 -0.335347
v -1.026945 3.895998 -0.354948
v -0.965283 3.992634 -0.364291
v -1.000000 3.992634 -0.319083
v -1.000000 3.992634 -0.289313
v -1.026945 3.907575 -0.306170
v -0.964847 3.992634 -0.308291
vn -0.8272 -0.5619 -0.0000
vn -0.0000 -0.5619 -0.8272
vn 0.8272 -0.5619 -0.0000
vn -0.0000 -0.5619 0.8272
vn -0.0000 1.0000 -0.0000
vn 1.0000 -0.0000 -0.0000
vn -0.0000 0.5619 0.8272
vn -0.0000 -0.0000 1.0000
vn 0.8272 0.5619 -0.0000
vn -0.0000 0.5619 -0.8272
vn -0.0000 -0.0000 -1.0000
vn -0.8272 0.5619 -0.0000
vn -1.0000 -0.0000 -0.0000
vn -0.0000 -1.0000 -0.0000
vn -0.6404 -0.0000 -0.7681
vn 0.9675 -0.0000 0.2527
vn 0.0543 -0.0000 -0.9985
vn -0.0231 -0.0000 0.9997
vn -0.9421 -0.0000 0.3352
vn 0.3120 -0.0000 0.9501
vn 0.9799 -0.0000 0.1993
vn -0.1060 -0.0000 0.9944
vn 0.9897 -0.0000 0.1432
vn -0.9987 -0.0000 0.0502
vn -0.9281 -0.0000 0.3723
vn 0.9954 -0.0000 0.0959
vn -0.9274 -0.0000 0.3741
vn 0.2343 -0.0000 -0.9722
vn -0.4623 -0.0000 0.8867
vn -0.9538 -0.0000 -0.3005
vn 0.9979 -0.0000 0.0642
vn -0.8772 -0.0000 -0.4802
vn 0.1832 -0.0000 0.9831
vn 0.9892 -0.0000 0.1463
vn -0.2935 -0.0000 0.9560
vn -0.0820 -0.0000 -0.9966
vn 0.1592 -0.0000 -0.9872
vn -0.4751 -0.0000 -0.8800
vt 0.125000 0.750000
vt 0.375000 0.000000
vt 0.375000 1.000000
vt 0.870931 0.745931
vt 0.125000 0.500000
vt 0.375000 0.250000
vt 0.870931 0.504069
vt 0.375000 0.750000
vt 0.629069 0.745931
vt 0.375000 0.500000
vt 0.629069 0.504069
vt 0.458333 0.000000
vt 0.458333 1.000000
vt 0.541667 1.000000
vt 0.541667 0.000000
vt 0.541667 0.250000
vt 0.458333 0.250000
vt 0.541667 0.500000
vt 0.458333 0.500000
vt 0.541667 0.750000
vt 0.458333 0.750000
vt 0.625000 0.000000
vt 0.625000 1.000000
vt 0.875000 0.750000
vt 0.625000 0.250000
vt 0.875000 0.500000
vt 0.625000 0.500000
vt 0.625000 0.750000
vt 0.839902 0.714902
vt 0.839902 0.535098
vt 0.660098 0.535098
vt 0.660098 0.714902
vt 0.870931 0.745931
vt 0.870931 0.504069
vt 0.629069 0.504069
vt 0.629069 0.745931
vt 0.839902 0.714902
vt 0.839902 0.535098
vt 0.660098 0.535098
vt 0.660098 0.714902
vt 0.458333 0.656339
vt 0.458333 0.664544
vt 0.375000 0.665067
vt 0.375000 0.657811
vt 0.489605 0.661858
vt 0.356047 0.664036
vt 0.260532 0.750000
vt 0.375000 0.864468
vt 0.268043 0.750000
vt 0.375000 0.856957
vt 0.458333 0.858464
vt 0.458333 0.862252
vt 0.458333 0.864955
vt 0.492902 0.860297
vt 0.475025 0.863611
vt 0.261699 0.744261
vt 0.263134 0.748292
vt 0.267179 0.732805
vt 0.188174 0.750000
vt 0.375000 0.936826
vt 0.192160 0.750000
vt 0.205045 0.750000
vt 0.375000 0.919956
vt 0.458333 0.920571
vt 0.458333 0.935689
vt 0.485565 0.924808
vt 0.467477 0.927193
vt 0.494015 0.932421
vt 0.476676 0.935809
vt 0.189230 0.742697
vt 0.194645 0.724217
vt 0.458333 0.165549
vt 0.458333 0.169789
vt 0.125000 0.579363
vt 0.375000 0.170637
vt 0.125000 0.583082
vt 0.375000 0.166918
vt 0.481098 0.168204
vt 0.129340 0.579464
vt 0.458333 0.161006
vt 0.375000 0.164885
vt 0.125000 0.585115
vt 0.375000 0.161164
vt 0.125000 0.588836
vt 0.476471 0.162267
vt 0.129394 0.586464
vt 0.458333 0.656339
vt 0.458333 0.664544
vt 0.375000 0.665067
vt 0.375000 0.657811
vt 0.489605 0.661858
vt 0.356047 0.664036
vt 0.260532 0.750000
vt 0.375000 0.864468
vt 0.268043 0.750000
vt 0.375000 0.856957
vt 0.458333 0.858464
vt 0.458333 0.862252
vt 0.458333 0.864955
vt 0.492902 0.860297
vt 0.475025 0.863611
vt 0.261699 0.744261
vt 0.263134 0.748292
vt 0.267179 0.732805
vt 0.188174 0.750000
vt 0.375000 0.936826
vt 0.375000 0.932840
vt 0.192160 0.750000
vt 0.205045 0.750000
vt 0.375000 0.919956
vt 0.458333 0.920571
vt 0.458333 0.935689
vt 0.485565 0.924808
vt 0.467477 0.927193
vt 0.494015 0.932421
vt 0.476676 0.935809
vt 0.189230 0.742697
vt 0.194645 0.724217
vt 0.458333 0.161006
vt 0.458333 0.165549
vt 0.458333 0.169789
vt 0.375000 0.170637
vt 0.125000 0.579363
vt 0.125000 0.583082
vt 0.375000 0.166918
vt 0.481098 0.168204
vt 0.129340 0.579464
vt 0.375000 0.164885
vt 0.125000 0.585115
vt 0.375000 0.161164
vt 0.125000 0.588836
vt 0.476471 0.162267
vt 0.129394 0.586464
s 0
f 10/15/1 11/16/1 18/25/1 17/22/1
f 11/16/2 13/18/2 19/27/2 18/25/2
f 13/18/3 15/20/3 20/28/3 19/27/3
f 15/20/4 10/14/4 17/23/4 20/28/4
f 3/5/5 62/74/5 65/79/5 63/76/5 67/82/5 70/86/5 68/84/5 1/1/5 49/59/5 58/70/5 50/61/5 59/71/5 51/62/5 39/47/5 46/56/5 47/57/5 48/58/5 40/49/5 5/8/5 35/43/5 38/46/5 36/44/5 7/10/5
f 6/9/6 28/36/6 27/35/6 8/11/6
f 5/8/7 40/50/7 41/51/7 16/21/7
f 16/21/8 41/51/8 44/54/8 42/52/8 45/55/8 43/53/8 52/64/8 54/66/8 55/67/8 56/68/8 57/69/8 53/65/8 9/13/8 10/14/8 15/20/8
f 7/10/9 36/44/9 33/41/9 14/19/9
f 14/19/6 33/41/6 37/45/6 34/42/6 16/21/6 15/20/6 13/18/6
f 3/6/10 7/10/10 14/19/10 12/17/10
f 12/17/11 14/19/11 13/18/11 11/16/11
f 1/2/12 68/83/12 66/80/12 9/12/12
f 9/12/13 66/80/13 69/85/13 60/72/13 64/78/13 61/73/13 12/17/13 11/16/13 10/15/13
f 2/4/14 17/24/14 18/26/14 4/7/14
f 4/7/14 18/26/14 19/27/14 8/11/14
f 8/11/14 19/27/14 20/28/14 6/9/14
f 6/9/14 20/28/14 17/24/14 2/4/14
f 24/32/13 32/40/13 31/39/13 23/31/13
f 4/7/13 26/34/13 25/33/13 2/4/13
f 2/4/8 25/33/8 28/36/8 6/9/8
f 8/11/11 27/35/11 26/34/11 4/7/11
f 21/29/14 25/33/14 26/34/14 22/30/14
f 22/30/14 26/34/14 27/35/14 23/31/14
f 23/31/14 27/35/14 28/36/14 24/32/14
f 24/32/14 28/36/14 25/33/14 21/29/14
f 31/39/14 32/40/14 29/37/14 30/38/14
f 22/30/6 30/38/6 29/37/6 21/29/6
f 21/29/11 29/37/11 32/40/11 24/32/11
f 23/31/8 31/39/8 30/38/8 22/30/8
f 65/79/15 104/127/15 102/124/15 63/76/15
f 35/43/9 5/8/9 16/21/9 34/42/9
f 47/57/16 85/103/16 86/104/16 48/58/16
f 57/69/8 95/116/8 91/112/8 53/65/8
f 35/43/17 73/89/17 76/92/17 38/46/17
f 39/48/7 51/63/7 52/64/7 43/53/7
f 62/74/18 101/123/18 104/127/18 65/79/18
f 46/56/19 84/102/19 85/103/19 47/57/19
f 38/46/20 76/92/20 74/90/20 36/44/20
f 49/60/7 1/3/7 9/13/7 53/65/7
f 39/47/21 77/93/21 84/102/21 46/56/21
f 62/75/12 3/6/12 12/17/12 61/73/12
f 67/81/12 63/77/12 60/72/12
f 61/73/22 100/121/22 101/122/22 62/75/22
f 74/90/9 73/89/9 72/88/9 71/87/9
f 71/87/6 72/88/6 75/91/6
f 73/89/5 74/90/5 76/92/5
f 78/96/7 77/94/7 81/99/7 80/98/7 79/97/7
f 79/97/8 80/98/8 82/100/8
f 80/98/8 81/99/8 83/101/8
f 77/93/5 78/95/5 86/104/5 85/103/5 84/102/5
f 89/110/7 88/107/7 87/106/7 91/112/7 90/111/7
f 90/111/8 91/112/8 95/116/8 94/115/8 93/114/8 92/113/8
f 87/105/5 88/108/5 96/117/5
f 88/108/5 89/109/5 97/118/5
f 102/125/12 101/122/12 100/121/12 99/120/12
f 99/120/13 100/121/13 103/126/13
f 101/123/5 102/124/5 104/127/5
f 106/130/12 105/128/12 99/120/12 98/119/12
f 98/119/13 99/120/13 107/132/13
f 105/129/5 106/131/5 108/133/5
f 49/59/23 87/105/23 96/117/23 58/70/23
f 48/58/24 86/104/24 78/95/24 40/49/24
f 58/70/25 96/117/25 88/108/25 50/61/25
f 50/61/26 88/108/26 97/118/26 59/71/26
f 59/71/27 97/118/27 89/109/27 51/62/27
f 68/83/28 106/130/28 98/119/28 66/80/28
f 60/72/29 99/120/29 105/128/29 67/81/29
f 40/50/30 78/96/30 79/97/30 41/51/30
f 43/53/31 81/99/31 77/94/31 39/48/31
f 51/63/32 89/110/32 90/111/32 52/64/32
f 36/44/33 74/90/33 71/87/33 33/41/33
f 53/65/34 91/112/34 87/106/34 49/60/34
f 67/82/35 105/129/35 108/133/35 70/86/35
f 63/77/36 102/125/36 99/120/36 60/72/36
f 34/42/37 72/88/37 73/89/37 35/43/37
f 70/86/38 108/133/38 106/131/38 68/84/38
l 69 107
l 64 103
o Cube.002
v 0.720236 3.788833 0.890951
v 0.720236 3.788833 0.731424
v 0.879764 3.788833 0.731424
v 0.879764 3.788833 0.890951
v 0.914369 2.040314 0.925557
v 1.073897 2.040314 0.925557
v 1.073897 2.040314 1.085085
v 0.914369 2.040314 1.085085
v 0.945403 1.987473 1.065785
v 0.917459 2.012486 1.088174
v 0.917459 2.012486 0.928647
v 0.945403 1.987473 0.956590
v 1.076987 2.012486 1.088174
v 1.054597 1.987473 1.065785
v 1.076987 2.012486 0.928647
v 1.054597 1.987473 0.956590
v -0.720236 3.788833 0.890951
v -0.720236 3.788833 0.731424
v -0.879764 3.788833 0.731424
v -0.879764 3.788833 0.890951
v -0.914369 2.040314 0.925557
v -1.073897 2.040314 0.925557
v -1.073897 2.040314 1.085085
v -0.914369 2.040314 1.085085
v -0.945403 1.987473 1.065785
v -0.917459 2.012486 1.088174
v -0.917459 2.012486 0.928647
v -0.945403 1.987473 0.956590
v -1.076987 2.012486 1.088174
v -1.054597 1.987473 1.065785
v -1.076987 2.012486 0.928647
v -1.054597 1.987473 0.956590
v 0.720236 3.788833 -0.890951
v 0.720236 3.788833 -0.731424
v 0.879764 3.788833 -0.731424
v 0.879764 3.788833 -0.890951
v 0.914369 2.040314 -0.925557
v 1.073897 2.040314 -0.925557
v 1.073897 2.040314 -1.085085
v 0.914369 2.040314 -1.085085
v 0.945403 1.987473 -1.065785
v 0.917459 2.012486 -1.088174
v 0.917459 2.012486 -0.928647
v 0.945403 1.987473 -0.956590
v 1.076987 2.012486 -1.088174
v 1.054597 1.987473 -1.065785
v 1.076987 2.012486 -0.928647
v 1.054597 1.987473 -0.956590
v -0.720236 3.788832 -0.890951
v -0.720236 3.788832 -0.731424
v -0.879764 3.788832 -0.731424
v -0.879764 3.788832 -0.890951
v -0.914369 2.040314 -0.925557
v -1.073897 2.040314 -0.925557
v -1.073897 2.040314 -1.085085
v -0.914369 2.040314 -1.085085
v -0.945403 1.987473 -1.065785
v -0.917459 2.012486 -1.088174
v -0.917459 2.012486 -0.928647
v -0.945403 1.987473 -0.956590
v -1.076987 2.012486 -1.088174
v -1.054597 1.987473 -1.065785
v -1.076987 2.012486 -0.928647
v -1.054597 1.987473 -0.956590
vn -0.0000 -0.1103 -0.9939
vn 0.9939 0.1103 -0.0000
vn -0.0000 0.1103 0.9939
vn -0.0000 1.0000 -0.0000
vn -0.9939 -0.1103 -0.0000
vn -0.0000 -1.0000 -0.0000
vn -0.0000 -0.1104 -0.9939
vn -0.6670 -0.7451 -0.0000
vn -0.0000 -0.7451 -0.6670
vn 0.7451 -0.6670 -0.0000
vn -0.0000 -0.6670 0.7451
vn -0.9939 0.1103 -0.0000
vn -0.0000 0.1104 0.9939
vn 0.9939 -0.1103 -0.0000
vn -0.9939 0.1104 -0.0000
vn 0.6670 -0.7451 -0.0000
vn -0.7451 -0.6670 -0.0000
vn 0.9939 -0.1104 -0.0000
vn -0.0000 -0.1103 0.9939
vn -0.0000 0.1103 -0.9939
vn -0.0000 -0.7451 0.6670
vn -0.0000 -0.6670 -0.7451
vt 0.625000 1.000000
vt 0.875000 0.750000
vt 0.625000 0.000000
vt 0.875000 0.500000
vt 0.625000 0.250000
vt 0.625000 0.500000
vt 0.625000 0.750000
vt 0.382333 0.250000
vt 0.382333 0.500000
vt 0.382333 0.750000
vt 0.382333 1.000000
vt 0.382333 0.000000
vt 0.164439 0.710561
vt 0.378471 1.000000
vt 0.125000 0.745648
vt 0.125000 0.750000
vt 0.378471 0.000000
vt 0.125000 0.500000
vt 0.378471 0.250000
vt 0.164439 0.539439
vt 0.378471 0.750000
vt 0.370648 0.750000
vt 0.335561 0.710561
vt 0.370648 0.500000
vt 0.378471 0.500000
vt 0.335561 0.539439
vt 0.625000 1.000000
vt 0.875000 0.750000
vt 0.625000 0.000000
vt 0.875000 0.500000
vt 0.625000 0.250000
vt 0.625000 0.500000
vt 0.625000 0.750000
vt 0.382333 0.250000
vt 0.382333 0.500000
vt 0.382333 0.750000
vt 0.382333 1.000000
vt 0.382333 0.000000
vt 0.164439 0.710561
vt 0.378471 1.000000
vt 0.125000 0.745648
vt 0.125000 0.750000
vt 0.378471 0.000000
vt 0.125000 0.500000
vt 0.378471 0.250000
vt 0.164439 0.539439
vt 0.378471 0.750000
vt 0.370648 0.750000
vt 0.335561 0.710561
vt 0.370648 0.500000
vt 0.378471 0.500000
vt 0.335561 0.539439
vt 0.625000 1.000000
vt 0.875000 0.750000
vt 0.625000 0.000000
vt 0.875000 0.500000
vt 0.625000 0.250000
vt 0.625000 0.500000
vt 0.625000 0.750000
vt 0.382333 0.250000
vt 0.382333 0.500000
vt 0.382333 0.750000
vt 0.382333 1.000000
vt 0.382333 0.000000
vt 0.164439 0.710561
vt 0.378471 1.000000
vt 0.125000 0.745648
vt 0.125000 0.750000
vt 0.378471 0.000000
vt 0.125000 0.500000
vt 0.378471 0.250000
vt 0.164439 0.539439
vt 0.378471 0.750000
vt 0.370648 0.750000
vt 0.335561 0.710561
vt 0.370648 0.500000
vt 0.378471 0.500000
vt 0.335561 0.539439
vt 0.625000 1.000000
vt 0.875000 0.750000
vt 0.625000 0.000000
vt 0.875000 0.500000
vt 0.625000 0.250000
vt 0.625000 0.500000
vt 0.625000 0.750000
vt 0.382333 0.250000
vt 0.382333 0.500000
vt 0.382333 0.750000
vt 0.382333 1.000000
vt 0.382333 0.000000
vt 0.164439 0.710561
vt 0.378471 1.000000
vt 0.125000 0.745648
vt 0.125000 0.750000
vt 0.378471 0.000000
vt 0.125000 0.500000
vt 0.378471 0.250000
vt 0.164439 0.539439
vt 0.378471 0.750000
vt 0.370648 0.750000
vt 0.335561 0.710561
vt 0.370648 0.500000
vt 0.378471 0.500000
vt 0.335561 0.539439
s 0
f 113/141/39 110/138/39 111/139/39 114/142/39
f 114/142/40 111/139/40 112/140/40 115/143/40
f 115/143/41 112/140/41 109/134/41 116/144/41
f 121/154/41 115/143/41 116/144/41 118/147/41
f 111/139/42 110/137/42 109/135/42 112/140/42
f 116/145/43 109/136/43 110/138/43 113/141/43
f 120/153/44 124/159/44 122/156/44 117/146/44
f 119/152/45 113/141/45 114/142/45 123/158/45
f 123/158/40 114/142/40 115/143/40 121/154/40
f 120/153/46 117/146/46 118/148/46 119/151/46
f 124/159/47 120/153/47 119/151/47 123/157/47
f 122/156/48 124/159/48 123/158/48 121/154/48
f 117/146/49 122/156/49 121/155/49 118/149/49
f 118/150/43 116/145/43 113/141/43 119/152/43
f 129/167/39 130/168/39 127/165/39 126/164/39
f 130/168/50 131/169/50 128/166/50 127/165/50
f 131/169/41 132/170/41 125/160/41 128/166/41
f 137/180/51 134/173/51 132/170/51 131/169/51
f 127/165/42 128/166/42 125/161/42 126/163/42
f 132/171/52 129/167/52 126/164/52 125/162/52
f 136/179/44 133/172/44 138/182/44 140/185/44
f 135/178/45 139/184/45 130/168/45 129/167/45
f 139/184/53 137/180/53 131/169/53 130/168/53
f 136/179/54 135/177/54 134/174/54 133/172/54
f 140/185/47 139/183/47 135/177/47 136/179/47
f 138/182/55 137/180/55 139/184/55 140/185/55
f 133/172/49 134/175/49 137/181/49 138/182/49
f 134/176/56 135/178/56 129/167/56 132/171/56
f 145/193/57 146/194/57 143/191/57 142/190/57
f 146/194/40 147/195/40 144/192/40 143/191/40
f 147/195/58 148/196/58 141/186/58 144/192/58
f 153/206/58 150/199/58 148/196/58 147/195/58
f 143/191/42 144/192/42 141/187/42 142/189/42
f 148/197/43 145/193/43 142/190/43 141/188/43
f 152/205/44 149/198/44 154/208/44 156/211/44
f 151/204/57 155/210/57 146/194/57 145/193/57
f 155/210/40 153/206/40 147/195/40 146/194/40
f 152/205/46 151/203/46 150/200/46 149/198/46
f 156/211/59 155/209/59 151/203/59 152/205/59
f 154/208/48 153/206/48 155/210/48 156/211/48
f 149/198/60 150/201/60 153/207/60 154/208/60
f 150/202/43 151/204/43 145/193/43 148/197/43
f 161/219/57 158/216/57 159/217/57 162/220/57
f 162/220/50 159/217/50 160/218/50 163/221/50
f 163/221/58 160/218/58 157/212/58 164/222/58
f 169/232/58 163/221/58 164/222/58 166/225/58
f 159/217/42 158/215/42 157/213/42 160/218/42
f 164/223/52 157/214/52 158/216/52 161/219/52
f 168/231/44 172/237/44 170/234/44 165/224/44
f 167/230/57 161/219/57 162/220/57 171/236/57
f 171/236/53 162/220/53 163/221/53 169/232/53
f 168/231/54 165/224/54 166/226/54 167/229/54
f 172/237/59 168/231/59 167/229/59 171/235/59
f 170/234/55 172/237/55 171/236/55 169/232/55
f 165/224/60 170/234/60 169/233/60 166/227/60
f 166/228/56 164/223/56 161/219/56 167/230/56
