# Blender 3.3.0
# www.blender.org
mtllib Wall and floor Tiles.mtl
g Cylinder_Cylinder
v -0.169280 4.129537 -3.996417
v -0.270230 5.699648 -4.038252
v -0.126756 4.129537 -4.038926
v -0.168557 5.699648 -4.139891
v -0.066629 4.129537 -4.038916
v -0.024793 5.699648 -4.139866
v -0.024120 4.129537 -3.996392
v 0.076845 5.699648 -4.038192
v -0.024130 4.129537 -3.936264
v 0.076820 5.699648 -3.894428
v -0.066654 4.129537 -3.893755
v -0.024854 5.699648 -3.792790
v -0.126782 4.129537 -3.893765
v -0.168617 5.699648 -3.792815
v -0.169291 4.129537 -3.936290
v -0.270256 5.699648 -3.894489
vn -0.7055 -0.0642 -0.7058
vn 0.0002 -0.0642 -0.9979
vn 0.7058 -0.0642 -0.7055
vn 0.9979 -0.0642 0.0002
vn 0.7055 -0.0642 0.7058
vn -0.0002 -0.0642 0.9979
vn -0.0000 1.0000 -0.0000
vn -0.7058 -0.0642 0.7055
vn -0.9979 -0.0642 -0.0002
vn -0.0000 -1.0000 -0.0000
vt 1.000000 0.500000
vt 0.000000 0.500000
vt 0.750000 0.490000
vt 1.000000 1.000000
vt 0.250000 0.490000
vt 0.000000 1.000000
vt 0.875000 0.500000
vt 0.919706 0.419706
vt 0.875000 1.000000
vt 0.419706 0.419706
vt 0.750000 0.500000
vt 0.990000 0.250000
vt 0.750000 1.000000
vt 0.490000 0.250000
vt 0.625000 0.500000
vt 0.919706 0.080294
vt 0.625000 1.000000
vt 0.419706 0.080294
vt 0.500000 0.500000
vt 0.750000 0.010000
vt 0.500000 1.000000
vt 0.250000 0.010000
vt 0.375000 0.500000
vt 0.580294 0.080294
vt 0.375000 1.000000
vt 0.080294 0.080294
vt 0.250000 0.500000
vt 0.510000 0.250000
vt 0.010000 0.250000
vt 0.250000 1.000000
vt 0.125000 0.500000
vt 0.580294 0.419706
vt 0.080294 0.419706
vt 0.125000 1.000000
s 0
f 1/1/1 2/4/1 4/9/1 3/7/1
f 3/7/2 4/9/2 6/13/2 5/11/2
f 5/11/3 6/13/3 8/17/3 7/15/3
f 7/15/4 8/17/4 10/21/4 9/19/4
f 9/19/5 10/21/5 12/25/5 11/23/5
f 11/23/6 12/25/6 14/30/6 13/27/6
f 4/10/7 2/5/7 16/33/7 14/29/7 12/26/7 10/22/7 8/18/7 6/14/7
f 13/27/8 14/30/8 16/34/8 15/31/8
f 15/31/9 16/34/9 2/6/9 1/2/9
f 1/3/10 3/8/10 5/12/10 7/16/10 9/20/10 11/24/10 13/28/10 15/32/10
g Torch_Cylinder.001
v -0.341020 5.699648 -4.067589
v -0.197868 5.699648 -4.210691
v 0.004544 5.699648 -4.210656
v 0.147646 5.699648 -4.067504
v 0.147610 5.699648 -3.865092
v 0.004458 5.699648 -3.721990
v -0.197954 5.699648 -3.722025
v -0.341056 5.699648 -3.865177
v -0.186062 5.776804 -4.182173
v -0.312507 5.776804 -4.055773
v -0.007273 5.776804 -4.182142
v 0.119128 5.776804 -4.055697
v 0.119097 5.776804 -3.876908
v -0.007348 5.776804 -3.750507
v -0.186137 5.776804 -3.750539
v -0.312538 5.776804 -3.876983
v -0.197868 5.776804 -4.210691
v -0.341020 5.776804 -4.067589
v 0.004544 5.776804 -4.210656
v 0.147646 5.776804 -4.067504
v 0.147610 5.776804 -3.865092
v 0.004458 5.776804 -3.721990
v -0.197954 5.776804 -3.722025
v -0.341056 5.776804 -3.865177
v -0.186062 5.848039 -4.182173
v -0.312507 5.848039 -4.055773
v -0.007273 5.848039 -4.182142
v 0.119128 5.848039 -4.055697
v 0.119097 5.848039 -3.876908
v -0.007348 5.848039 -3.750507
v -0.186137 5.848039 -3.750539
v -0.312538 5.848039 -3.876983
v -0.197532 5.848039 -4.209879
v -0.340208 5.848039 -4.067253
v 0.004207 5.848039 -4.209844
v 0.146834 5.848039 -4.067168
v 0.146799 5.848039 -3.865428
v 0.004122 5.848039 -3.722802
v -0.197617 5.848039 -3.722837
v -0.340244 5.848039 -3.865513
v -0.170275 5.909093 -4.144042
v -0.274381 5.909093 -4.039973
v -0.023073 5.909093 -4.144016
v 0.080997 5.909093 -4.039911
v 0.080971 5.909093 -3.892708
v -0.023135 5.909093 -3.788639
v -0.170337 5.909093 -3.788664
v -0.274407 5.909093 -3.892770
v -0.197532 5.909093 -4.209879
v -0.340208 5.909093 -4.067253
v 0.004207 5.909093 -4.209844
v 0.146834 5.909093 -4.067168
v 0.146799 5.909093 -3.865428
v 0.004122 5.909093 -3.722802
v -0.197617 5.909093 -3.722837
v -0.340244 5.909093 -3.865513
v -0.149470 5.784204 -4.093790
v -0.224136 5.784204 -4.019150
v -0.043895 5.784204 -4.093771
v 0.030744 5.784204 -4.019105
v 0.030726 5.784204 -3.913531
v -0.043940 5.784204 -3.838891
v -0.149515 5.784204 -3.838910
v -0.224154 5.784204 -3.913575
vn -0.0000 -1.0000 -0.0000
vn -0.0002 -0.0000 1.0000
vn 0.7070 -0.0000 0.7072
vn 0.7072 -0.0000 -0.7070
vn -0.7070 -0.0000 -0.7072
vn -1.0000 -0.0000 -0.0002
vn 1.0000 -0.0000 0.0002
vn 0.0002 -0.0000 -1.0000
vn -0.7072 -0.0000 0.7070
vn -0.0000 1.0000 -0.0000
vn 0.0002 0.3733 -0.9277
vn -0.9277 0.3733 -0.0002
vn -0.0002 0.3733 0.9277
vn 0.6561 0.3733 -0.6559
vn -0.6559 0.3733 -0.6561
vn -0.6561 0.3733 0.6559
vn 0.6559 0.3733 0.6561
vn 0.9277 0.3733 0.0002
vt 0.250000 0.490000
vt 0.419706 0.419706
vt 0.490000 0.250000
vt 0.419706 0.080294
vt 0.250000 0.010000
vt 0.080294 0.080294
vt 0.010000 0.250000
vt 0.080294 0.419706
vt 0.399900 0.399900
vt 0.250000 0.461990
vt 0.461990 0.250000
vt 0.399900 0.100100
vt 0.250000 0.038010
vt 0.100100 0.100100
vt 0.038010 0.250000
vt 0.100100 0.399900
vt 0.419706 0.419706
vt 0.250000 0.490000
vt 0.490000 0.250000
vt 0.419706 0.080294
vt 0.250000 0.010000
vt 0.080294 0.080294
vt 0.010000 0.250000
vt 0.080294 0.419706
vt 0.399900 0.399900
vt 0.250000 0.461990
vt 0.461990 0.250000
vt 0.399900 0.100100
vt 0.250000 0.038010
vt 0.100100 0.100100
vt 0.038010 0.250000
vt 0.100100 0.399900
vt 0.399900 0.399900
vt 0.250000 0.461990
vt 0.461990 0.250000
vt 0.399900 0.100100
vt 0.250000 0.038010
vt 0.100100 0.100100
vt 0.038010 0.250000
vt 0.100100 0.399900
vt 0.359377 0.359377
vt 0.250000 0.404682
vt 0.404682 0.250000
vt 0.359377 0.140623
vt 0.250000 0.095318
vt 0.140623 0.140623
vt 0.095318 0.250000
vt 0.140623 0.359377
vt 0.399900 0.399900
vt 0.250000 0.461990
vt 0.461990 0.250000
vt 0.399900 0.100100
vt 0.250000 0.038010
vt 0.100100 0.100100
vt 0.038010 0.250000
vt 0.100100 0.399900
vt 0.359377 0.359377
vt 0.250000 0.404682
vt 0.404682 0.250000
vt 0.359377 0.140623
vt 0.250000 0.095318
vt 0.140623 0.140623
vt 0.095318 0.250000
vt 0.140623 0.359377
s 0
f 18/36/11 19/37/11 20/38/11 21/39/11 22/40/11 23/41/11 24/42/11 17/35/11
f 31/49/12 30/48/12 46/64/12 47/65/12
f 22/40/13 21/39/13 37/55/13 38/56/13
f 20/38/14 19/37/14 35/53/14 36/54/14
f 18/36/15 17/35/15 34/52/15 33/51/15
f 17/35/16 24/42/16 40/58/16 34/52/16
f 23/41/12 22/40/12 38/56/12 39/57/12
f 21/39/17 20/38/17 36/54/17 37/55/17
f 19/37/18 18/36/18 33/51/18 35/53/18
f 24/42/19 23/41/19 39/57/19 40/58/19
f 26/44/20 25/43/20 33/51/20 34/52/20
f 25/43/20 27/45/20 35/53/20 33/51/20
f 27/45/20 28/46/20 36/54/20 35/53/20
f 28/46/20 29/47/20 37/55/20 36/54/20
f 29/47/20 30/48/20 38/56/20 37/55/20
f 30/48/20 31/49/20 39/57/20 38/56/20
f 31/49/20 32/50/20 40/58/20 39/57/20
f 32/50/20 26/44/20 34/52/20 40/58/20
f 48/66/11 47/65/11 55/73/11 56/74/11
f 29/47/17 28/46/17 44/62/17 45/63/17
f 27/45/18 25/43/18 41/59/18 43/61/18
f 32/50/19 31/49/19 47/65/19 48/66/19
f 30/48/13 29/47/13 45/63/13 46/64/13
f 28/46/14 27/45/14 43/61/14 44/62/14
f 25/43/15 26/44/15 42/60/15 41/59/15
f 26/44/16 32/50/16 48/66/16 42/60/16
f 51/69/18 49/67/18 65/83/18 67/85/18
f 46/64/11 45/63/11 53/71/11 54/72/11
f 44/62/11 43/61/11 51/69/11 52/70/11
f 41/59/11 42/60/11 50/68/11 49/67/11
f 42/60/11 48/66/11 56/74/11 50/68/11
f 47/65/11 46/64/11 54/72/11 55/73/11
f 45/63/11 44/62/11 52/70/11 53/71/11
f 43/61/11 41/59/11 49/67/11 51/69/11
f 63/81/21 62/80/21 78/96/21 79/97/21
f 56/74/19 55/73/19 71/89/19 72/90/19
f 54/72/13 53/71/13 69/87/13 70/88/13
f 52/70/14 51/69/14 67/85/14 68/86/14
f 49/67/15 50/68/15 66/84/15 65/83/15
f 50/68/16 56/74/16 72/90/16 66/84/16
f 55/73/12 54/72/12 70/88/12 71/89/12
f 53/71/17 52/70/17 68/86/17 69/87/17
f 58/76/20 57/75/20 65/83/20 66/84/20
f 57/75/20 59/77/20 67/85/20 65/83/20
f 59/77/20 60/78/20 68/86/20 67/85/20
f 60/78/20 61/79/20 69/87/20 68/86/20
f 61/79/20 62/80/20 70/88/20 69/87/20
f 62/80/20 63/81/20 71/89/20 70/88/20
f 63/81/20 64/82/20 72/90/20 71/89/20
f 64/82/20 58/76/20 66/84/20 72/90/20
f 73/91/20 74/92/20 80/98/20 79/97/20 78/96/20 77/95/20 76/94/20 75/93/20
f 61/79/22 60/78/22 76/94/22 77/95/22
f 59/77/23 57/75/23 73/91/23 75/93/23
f 64/82/24 63/81/24 79/97/24 80/98/24
f 62/80/25 61/79/25 77/95/25 78/96/25
f 60/78/26 59/77/26 75/93/26 76/94/26
f 57/75/27 58/76/27 74/92/27 73/91/27
f 58/76/28 64/82/28 80/98/28 74/92/28
